RUSSIAN AUDIO
 
http://www.imdb.com/title/tt0889573/
 
http://shareimage.ro/images/ei7dxus71ip67oups4.png

Format : AVI
Format/Info : Audio Video Interleave
File size : 701 MiB
Duration : 1h 36mn
Overall bit rate : 1 015 Kbps
Writing application : VirtualDubMod 1.5.10.2 (build 2540/release)

Video
Format : MPEG-4 Visual
Format profile : Streaming Video@L1
Format settings, BVOP : Yes
Format settings, QPel : No
Format settings, GMC : No warppoints
Format settings, Matrix : Custom
Codec ID : XVID
Codec ID/Hint : XviD
Duration : 1h 36mn
Bit rate : 878 Kbps
Width : 720 pixels
Height : 272 pixels
Display aspect ratio : 2.647
Frame rate : 25.000 fps
Resolution : 24 bits
Colorimetry : 4:2:0
Scan type : Progressive
Bits/(Pixel*Frame) : 0.179
Stream size : 606 MiB (86%)
Writing library : XviD 1.2.1 (UTC 2008-12-04)

Audio : Russian
Format : AC-3
Format/Info : Audio Coding 3
Codec ID : 2000
Duration : 1h 36mn
Bit rate mode : Constant
Bit rate : 128 Kbps
Channel(s) : 2 channels
Channel positions : L R
Sampling rate : 48.0 KHz
Stream size : 88.3 MiB (13%)
Alignment : Aligned on interleaves
Interleave, duration : 40 ms (1.00 video frame)
Interleave, preload duration : 512 ms

Thanks to pitic